<mxfile host="app.diagrams.net" modified="2022-12-03T20:50:43.395Z" agent="5.0 (Macintosh; Intel Mac OS X 10_15_7) AppleWebKit/537.36 (KHTML, like Gecko) Chrome/107.0.0.0 Safari/537.36" etag="HEC9-w4Sx-imTYMCQ2FB" version="20.6.0" type="github">
  <diagram name="Page-1" id="c4acf3e9-155e-7222-9cf6-157b1a14988f">
    <mxGraphModel dx="757" dy="471" grid="1" gridSize="10" guides="1" tooltips="1" connect="1" arrows="1" fold="1" page="1" pageScale="1" pageWidth="850" pageHeight="1100" background="none" math="0" shadow="0">
      <root>
        <mxCell id="0" />
        <mxCell id="1" parent="0" />
        <mxCell id="W_SBdadc4COz4f7FsC8Q-25" value="" style="edgeStyle=orthogonalEdgeStyle;rounded=0;orthogonalLoop=1;jettySize=auto;html=1;entryX=0.495;entryY=1.023;entryDx=0;entryDy=0;entryPerimeter=0;" edge="1" parent="1" source="W_SBdadc4COz4f7FsC8Q-3" target="W_SBdadc4COz4f7FsC8Q-22">
          <mxGeometry relative="1" as="geometry" />
        </mxCell>
        <mxCell id="W_SBdadc4COz4f7FsC8Q-3" value="Account" style="swimlane;fontStyle=0;align=center;verticalAlign=top;childLayout=stackLayout;horizontal=1;startSize=26;horizontalStack=0;resizeParent=1;resizeParentMax=0;resizeLast=0;collapsible=1;marginBottom=0;" vertex="1" parent="1">
          <mxGeometry x="345" y="230" width="175" height="150" as="geometry" />
        </mxCell>
        <mxCell id="W_SBdadc4COz4f7FsC8Q-4" value="# personID: String&#xa;# personBalance: String" style="text;strokeColor=none;fillColor=none;align=left;verticalAlign=top;spacingLeft=4;spacingRight=4;overflow=hidden;rotatable=0;points=[[0,0.5],[1,0.5]];portConstraint=eastwest;spacingBottom=0;" vertex="1" parent="W_SBdadc4COz4f7FsC8Q-3">
          <mxGeometry y="26" width="175" height="44" as="geometry" />
        </mxCell>
        <mxCell id="W_SBdadc4COz4f7FsC8Q-5" value="" style="line;strokeWidth=1;fillColor=none;align=left;verticalAlign=middle;spacingTop=-1;spacingLeft=3;spacingRight=3;rotatable=0;labelPosition=right;points=[];portConstraint=eastwest;strokeColor=inherit;" vertex="1" parent="W_SBdadc4COz4f7FsC8Q-3">
          <mxGeometry y="70" width="175" height="8" as="geometry" />
        </mxCell>
        <mxCell id="W_SBdadc4COz4f7FsC8Q-6" value="+ withdraw():&#xa;+ deposit():&#xa;+ getPersonID(): String&#xa;+ getPersonBalance(): Double" style="text;strokeColor=none;fillColor=none;align=left;verticalAlign=top;spacingLeft=4;spacingRight=4;overflow=hidden;rotatable=0;points=[[0,0.5],[1,0.5]];portConstraint=eastwest;spacingTop=0;spacing=2;" vertex="1" parent="W_SBdadc4COz4f7FsC8Q-3">
          <mxGeometry y="78" width="175" height="72" as="geometry" />
        </mxCell>
        <mxCell id="W_SBdadc4COz4f7FsC8Q-7" value="SavingsAccount extends Account" style="swimlane;fontStyle=0;childLayout=stackLayout;horizontal=1;startSize=26;fillColor=none;horizontalStack=0;resizeParent=1;resizeParentMax=0;resizeLast=0;collapsible=1;marginBottom=0;" vertex="1" parent="1">
          <mxGeometry x="200" y="420" width="200" height="52" as="geometry" />
        </mxCell>
        <mxCell id="W_SBdadc4COz4f7FsC8Q-9" value="+ addingInterest(): Double" style="text;strokeColor=none;fillColor=none;align=left;verticalAlign=top;spacingLeft=4;spacingRight=4;overflow=hidden;rotatable=0;points=[[0,0.5],[1,0.5]];portConstraint=eastwest;" vertex="1" parent="W_SBdadc4COz4f7FsC8Q-7">
          <mxGeometry y="26" width="200" height="26" as="geometry" />
        </mxCell>
        <mxCell id="W_SBdadc4COz4f7FsC8Q-11" value="CheckingAccount extends Account" style="swimlane;fontStyle=0;childLayout=stackLayout;horizontal=1;startSize=26;fillColor=none;horizontalStack=0;resizeParent=1;resizeParentMax=0;resizeLast=0;collapsible=1;marginBottom=0;labelBorderColor=none;labelBackgroundColor=none;" vertex="1" parent="1">
          <mxGeometry x="470" y="450" width="240" height="86" as="geometry" />
        </mxCell>
        <mxCell id="W_SBdadc4COz4f7FsC8Q-12" value="- numChecksUsed: Integer" style="text;strokeColor=none;fillColor=none;align=left;verticalAlign=top;spacingLeft=4;spacingRight=4;overflow=hidden;rotatable=0;points=[[0,0.5],[1,0.5]];portConstraint=eastwest;" vertex="1" parent="W_SBdadc4COz4f7FsC8Q-11">
          <mxGeometry y="26" width="240" height="26" as="geometry" />
        </mxCell>
        <mxCell id="W_SBdadc4COz4f7FsC8Q-20" value="" style="line;strokeWidth=1;fillColor=none;align=left;verticalAlign=middle;spacingTop=-1;spacingLeft=3;spacingRight=3;rotatable=0;labelPosition=right;points=[];portConstraint=eastwest;strokeColor=inherit;labelBackgroundColor=none;labelBorderColor=none;" vertex="1" parent="W_SBdadc4COz4f7FsC8Q-11">
          <mxGeometry y="52" width="240" height="8" as="geometry" />
        </mxCell>
        <mxCell id="W_SBdadc4COz4f7FsC8Q-14" value="+ withdrawUsingCheck():Â " style="text;strokeColor=none;fillColor=none;align=left;verticalAlign=top;spacingLeft=4;spacingRight=4;overflow=hidden;rotatable=0;points=[[0,0.5],[1,0.5]];portConstraint=eastwest;" vertex="1" parent="W_SBdadc4COz4f7FsC8Q-11">
          <mxGeometry y="60" width="240" height="26" as="geometry" />
        </mxCell>
        <mxCell id="W_SBdadc4COz4f7FsC8Q-18" value="" style="edgeStyle=orthogonalEdgeStyle;rounded=0;orthogonalLoop=1;jettySize=auto;html=1;" edge="1" parent="1" source="W_SBdadc4COz4f7FsC8Q-9" target="W_SBdadc4COz4f7FsC8Q-6">
          <mxGeometry relative="1" as="geometry" />
        </mxCell>
        <mxCell id="W_SBdadc4COz4f7FsC8Q-19" value="" style="edgeStyle=orthogonalEdgeStyle;rounded=0;orthogonalLoop=1;jettySize=auto;html=1;" edge="1" parent="1" source="W_SBdadc4COz4f7FsC8Q-14" target="W_SBdadc4COz4f7FsC8Q-6">
          <mxGeometry relative="1" as="geometry" />
        </mxCell>
        <mxCell id="W_SBdadc4COz4f7FsC8Q-21" value="(Abstract) &lt;&lt;&lt; Person &gt;&gt;&gt;" style="swimlane;fontStyle=2;align=center;verticalAlign=top;childLayout=stackLayout;horizontal=1;startSize=26;horizontalStack=0;resizeParent=1;resizeParentMax=0;resizeLast=0;collapsible=1;marginBottom=0;labelBackgroundColor=none;labelBorderColor=none;" vertex="1" parent="1">
          <mxGeometry x="352.5" y="120" width="160" height="52" as="geometry">
            <mxRectangle x="352.5" y="120" width="130" height="30" as="alternateBounds" />
          </mxGeometry>
        </mxCell>
        <mxCell id="W_SBdadc4COz4f7FsC8Q-22" value="- name: String&#xa;" style="text;strokeColor=none;fillColor=none;align=left;verticalAlign=top;spacingLeft=4;spacingRight=4;overflow=hidden;rotatable=0;points=[[0,0.5],[1,0.5]];portConstraint=eastwest;labelBackgroundColor=none;labelBorderColor=none;" vertex="1" parent="W_SBdadc4COz4f7FsC8Q-21">
          <mxGeometry y="26" width="160" height="26" as="geometry" />
        </mxCell>
      </root>
    </mxGraphModel>
  </diagram>
</mxfile>
